<?xml version="1.0" encoding="UTF-8"?>
<!DOCTYPE svg PUBLIC "-//W3C//DTD SVG 1.1//EN" "http://www.w3.org/Graphics/SVG/1.1/DTD/svg11.dtd">
<!-- Creator: CorelDRAW X7 -->
<svg xmlns="http://www.w3.org/2000/svg" xml:space="preserve" width="24.8276mm" height="30mm" version="1.1" style="shape-rendering:geometricPrecision; text-rendering:geometricPrecision; image-rendering:optimizeQuality; fill-rule:evenodd; clip-rule:evenodd"
viewBox="0 0 3246 3923"
 xmlns:xlink="http://www.w3.org/1999/xlink">

 <g id="Слой_x0020_1">
  <metadata id="CorelCorpID_0Corel-Layer"/>
  <path class="fil0" d="M1623 0c552,0 999,447 999,999 0,551 -447,998 -999,998 -551,0 -998,-447 -998,-998 0,-552 447,-999 998,-999zm0 131c-479,0 -868,388 -868,868 0,479 389,867 868,867 480,0 868,-388 868,-867 0,-480 -388,-868 -868,-868zm-1492 3661l2985 0c-11,-816 -675,-1473 -1493,-1473 -818,0 -1482,657 -1492,1473zm1492 -1604c897,0 1623,727 1623,1623 0,38 -1,75 -3,112l-3239 0c-3,-37 -4,-74 -4,-112 0,-896 727,-1623 1623,-1623z"/>
 </g>
</svg>
