<?xml version="1.0" encoding="UTF-8"?>
<!DOCTYPE svg PUBLIC "-//W3C//DTD SVG 1.1//EN" "http://www.w3.org/Graphics/SVG/1.1/DTD/svg11.dtd">
<!-- Creator: CorelDRAW X7 -->
<svg xmlns="http://www.w3.org/2000/svg" xml:space="preserve" width="15.2732mm" height="27.2669mm" version="1.1" style="shape-rendering:geometricPrecision; text-rendering:geometricPrecision; image-rendering:optimizeQuality; fill-rule:evenodd; clip-rule:evenodd"
viewBox="0 0 227 406"
 xmlns:xlink="http://www.w3.org/1999/xlink">

 <g id="Слой_x0020_1">
  <metadata id="CorelCorpID_0Corel-Layer"/>
  <path class="fil0" d="M114 0c62,0 113,51 113,114 0,44 -25,83 -62,101l39 191 -182 0 41 -191c-37,-18 -63,-57 -63,-101 0,-63 51,-114 114,-114zm37 221l-1 -2 -2 -11 0 -2c38,-13 64,-50 64,-92 0,-55 -44,-99 -98,-99 -55,0 -99,44 -99,99 0,42 27,79 65,93l-3 14 -37 170 146 0 -35 -170z"/>
 </g>
</svg>
