<?xml version="1.0" encoding="UTF-8"?>
<!DOCTYPE svg PUBLIC "-//W3C//DTD SVG 1.1//EN" "http://www.w3.org/Graphics/SVG/1.1/DTD/svg11.dtd">
<!-- Creator: CorelDRAW X7 -->
<svg xmlns="http://www.w3.org/2000/svg" xml:space="preserve" width="49.9625mm" height="55.4282mm" version="1.1" style="shape-rendering:geometricPrecision; text-rendering:geometricPrecision; image-rendering:optimizeQuality; fill-rule:evenodd; clip-rule:evenodd"
viewBox="0 0 16466 18267"
 xmlns:xlink="http://www.w3.org/1999/xlink">
 <defs>
  <style type="text/css">
   <![CDATA[
    .fil3 {fill:#48A38C}
    .fil2 {fill:#68BAA5}
    .fil5 {fill:#B25719}
    .fil6 {fill:#C42F2F}
    .fil1 {fill:#E23D3D}
    .fil0 {fill:#F94848}
    .fil4 {fill:#FC6565}
   ]]>
  </style>
 </defs>
 <g id="Слой_x0020_1">
  <metadata id="CorelCorpID_0Corel-Layer"/>
  <g id="_739832816">
   <path class="fil0" d="M15696 10170c0,2198 -1429,5236 -3157,6895 -767,737 -1592,1202 -2378,1202 -497,0 -992,-80 -1418,-208 -584,-177 -1205,-177 -1789,0 -426,128 -922,208 -1419,208 -823,0 -1690,-511 -2488,-1310 -1678,-1680 -3047,-4636 -3047,-6787 0,-3173 1898,-5091 3683,-5553 855,-222 1848,-79 2649,129 828,216 1690,252 2529,109 169,-29 337,-66 504,-109 801,-208 1793,-351 2648,-129 1785,462 3683,2380 3683,5553z"/>
   <path class="fil1" d="M12539 17065c-2121,375 -3755,271 -4985,-27 -2010,-487 -3506,-2182 -3755,-4235 -624,-5141 2736,-6638 2736,-6638 984,447 2091,208 2091,208 -706,-706 235,-1518 235,-1518 -839,143 -1701,107 -2529,-109 -801,-208 -1794,-351 -2649,-129 -1785,462 -3683,2380 -3683,5553 0,3173 2979,8097 5535,8097 497,0 993,-80 1419,-208 584,-177 1205,-177 1789,0 426,128 921,208 1418,208 786,0 1611,-465 2378,-1202 0,0 0,0 0,0z"/>
   <path class="fil2" d="M16466 196c0,0 -441,3073 -2762,3967 -2219,855 -4198,-1456 -5009,-1274 -37,7 -71,20 -102,39 -2,1 -2,1 -2,1l0 -2c28,-82 918,-2733 3203,-2907 2321,-176 3585,882 4672,176z"/>
   <path class="fil3" d="M16466 196c0,0 -1411,1719 -3394,1719 -1744,0 -3886,784 -4377,974 -59,22 -94,36 -102,39 -2,1 -2,1 -2,1l0 -2c28,-82 918,-2733 3203,-2907 2321,-176 3585,882 4672,176z"/>
   <ellipse class="fil4" transform="matrix(-0.0261041 -0.262651 0.262651 -0.0261041 13152.2 8828.76)" rx="6010" ry="3889"/>
   <path class="fil1" d="M9492 5938c0,361 -567,662 -1319,730 -105,10 -214,15 -325,15 -115,0 -228,-6 -337,-16 -745,-71 -1306,-370 -1306,-729l3287 0z"/>
   <path class="fil5" d="M9102 2890l-1205 1831c90,371 168,780 219,1217 28,236 48,480 57,730 -105,10 -213,14 -325,14 -115,0 -228,-5 -337,-15 -10,-250 -31,-494 -61,-729 -216,-1711 -876,-2972 -884,-2986 -86,-161 -24,-361 137,-447 161,-86 361,-25 447,137 19,37 262,501 507,1241l894 -1356c100,-153 305,-195 457,-94 153,100 195,305 94,457z"/>
   <path class="fil6" d="M10076 9379c343,0 621,278 621,621 0,343 -278,621 -621,621 -343,0 -621,-278 -621,-621 0,-343 278,-621 621,-621zm-4456 0c344,0 622,278 622,621 0,343 -278,621 -622,621 -343,0 -621,-278 -621,-621 0,-343 278,-621 621,-621z"/>
   <path class="fil6" d="M11137 12746c-506,1323 -1787,2263 -3289,2263 -1501,0 -2783,-940 -3289,-2263l65 0c250,0 464,120 593,334 539,889 1516,1483 2631,1483 1116,0 2092,-594 2631,-1483 130,-214 344,-334 593,-334l65 0z"/>
  </g>
 </g>
</svg>
