<?xml version="1.0" encoding="UTF-8"?>
<!DOCTYPE svg PUBLIC "-//W3C//DTD SVG 1.1//EN" "http://www.w3.org/Graphics/SVG/1.1/DTD/svg11.dtd">
<!-- Creator: CorelDRAW X7 -->
<svg xmlns="http://www.w3.org/2000/svg" xml:space="preserve" width="30mm" height="26.0324mm" version="1.1" style="shape-rendering:geometricPrecision; text-rendering:geometricPrecision; image-rendering:optimizeQuality; fill-rule:evenodd; clip-rule:evenodd"
viewBox="0 0 6960 6039"
 xmlns:xlink="http://www.w3.org/1999/xlink">
 
 <g id="Слой_x0020_1">
  <metadata id="CorelCorpID_0Corel-Layer"/>
  <path class="fil0" d="M1264 878l5696 0 -828 3114 -4034 0c-222,4 -676,788 224,780l3675 0 0 235 -494 0c88,108 140,247 140,397 0,351 -284,635 -635,635 -351,0 -635,-284 -635,-635 0,-150 52,-289 140,-397l-1638 0c88,108 140,247 140,397 0,351 -284,635 -635,635 -351,0 -635,-284 -635,-635 0,-144 48,-278 129,-384 -2,-1 -4,-2 -6,-3 -581,-301 -404,-782 -66,-1225l-954 -3557 -848 0 0 -235c343,0 686,0 1029,0l235 878zm3791 4129c199,23 354,192 354,397 0,221 -180,401 -401,401 -221,0 -400,-180 -400,-401 0,-205 154,-374 354,-397l93 0zm-2629 0c200,23 354,192 354,397 0,221 -179,401 -400,401 -221,0 -401,-180 -401,-401 0,-205 155,-374 354,-397l93 0zm4234 -3894l-5333 0 708 2644 3917 0 708 -2644z"/>
 </g>
</svg>
