<svg xmlns="http://www.w3.org/2000/svg" xmlns:xlink="http://www.w3.org/1999/xlink" width="49" height="62" viewBox="0 0 49 62"><defs><path id="w3oma" d="M1119 200.59V246h-47v-60h32.41zm-14-.59h10.59L1105 189.41zm12 44v-42h-14v-14h-29v56zm-8-36a1 1 0 0 1-1 1h-16a1 1 0 1 1 0-2h16a1 1 0 0 1 1 1zm-19.22-3.63a1 1 0 0 1-.16 1.41l-5 4a1 1 0 0 1-1.33-.07l-2-2a1 1 0 1 1 1.42-1.42l1.36 1.37 4.3-3.44a1 1 0 0 1 1.41.15zM1109 219a1 1 0 0 1-1 1h-16a1 1 0 1 1 0-2h16a1 1 0 0 1 1 1zm-19.22-3.63a1 1 0 0 1-.16 1.41l-5 4a1 1 0 0 1-1.33-.07l-2-2a1 1 0 1 1 1.42-1.42l1.36 1.37 4.3-3.44a1 1 0 0 1 1.41.15zM1109 230a1 1 0 0 1-1 1h-16a1 1 0 1 1 0-2h16a1 1 0 0 1 1 1zm-19.22-3.63a1 1 0 0 1-.16 1.41l-5 4a1 1 0 0 1-1.33-.07l-2-2a1 1 0 1 1 1.42-1.42l1.36 1.37 4.3-3.44a1 1 0 0 1 1.41.15z"/></defs><g><g transform="translate(-1071 -185)"><use fill="#fff" xlink:href="#w3oma"/></g></g></svg>