<?xml version="1.0" encoding="utf-8"?>
<!-- Generator: Adobe Illustrator 19.0.1, SVG Export Plug-In . SVG Version: 6.00 Build 0)  -->
<svg version="1.1" id="Слой_1" xmlns="http://www.w3.org/2000/svg" xmlns:xlink="http://www.w3.org/1999/xlink" x="0px" y="0px"
	 viewBox="0 0 289 289" style="enable-background:new 0 0 289 289;" xml:space="preserve">
<style type="text/css">
	.st0{fill-rule:evenodd;clip-rule:evenodd;fill:#D24A48;}
	.st1{fill:#FFFFFF;}
	.st2{fill-rule:evenodd;clip-rule:evenodd;fill:#FFFFFF;}
</style>
<g>
	<path class="st0" d="M70.8,0h147.5C257.2,0,289,31.8,289,70.8v147.5c0,38.9-31.8,70.8-70.8,70.8H70.8C31.8,289,0,257.2,0,218.3
		V70.8C0,31.8,31.8,0,70.8,0L70.8,0z"/>
	<path class="st1" d="M113,115.9c3,0,5.5,1.1,7.7,3.3c2.2,2.2,3.3,4.8,3.3,7.7c0,3.1-1.1,5.7-3.3,7.8c-2.2,2.1-4.8,3.2-7.7,3.2H67.5
		c-3,0-5.5-1.1-7.7-3.2c-2.2-2.1-3.3-4.7-3.3-7.8V89V69.6c2,1.1,4.3,1.7,6.7,1.7h15.3V78h19.6c3.1,0,5.7,1.1,7.8,3.2
		c2.1,2.1,3.2,4.7,3.2,7.8c0,3-1.1,5.5-3.2,7.7c-2.1,2.1-4.7,3.2-7.8,3.2H78.5v16H113L113,115.9z M63.1,68.1c-2.4,0-4.6-0.7-6.7-2.2
		c-1.3-1-2.3-2.3-3.1-3.8c-0.8-1.5-1.2-3.2-1.2-5c0-3,1.1-5.5,3.2-7.7c2.1-2.1,4.7-3.2,7.8-3.2H113c3,0,5.5,1.1,7.7,3.2
		c2.2,2.1,3.3,4.7,3.3,7.7c0,3.1-1.1,5.7-3.3,7.8c-2.2,2.1-4.8,3.2-7.7,3.2H78.5H63.1L63.1,68.1z"/>
	<path class="st1" d="M138.9,66.7l22,43.3v16.9c0,3.1-1.1,5.7-3.3,7.8c-2.2,2.1-4.8,3.2-7.7,3.2c-3.1,0-5.7-1.1-7.8-3.2
		c-2.1-2.1-3.2-4.7-3.2-7.8V66.7L138.9,66.7z M231.6,57.2v0.1v69.5c0,3.1-1.1,5.7-3.2,7.8c-2.1,2.1-4.7,3.2-7.7,3.2
		c-3.1,0-5.7-1.1-7.8-3.2c-2.1-2.1-3.2-4.7-3.2-7.8v-23.8L199.1,124l-4,7.8v0.1c-0.1,0.2-0.2,0.4-0.4,0.6v0.1
		c-0.1,0.1-0.2,0.2-0.2,0.3c0,0.1-0.1,0.2-0.2,0.3v0.1l-0.4,0.4c0,0.1,0,0.1-0.1,0.1c-0.1,0.1-0.2,0.2-0.2,0.3
		c0,0.1-0.1,0.2-0.2,0.3l-0.4,0.4l-0.1,0.1l-0.4,0.4c0,0,0,0-0.1,0.1c0,0-0.2,0.1-0.6,0.3c0,0.1,0,0.1-0.1,0.1
		c-0.1,0.1-0.2,0.1-0.2,0.1c0,0-0.1,0-0.2,0.1l-0.1,0.1c-0.1,0.1-0.2,0.1-0.2,0.1c0,0-0.1,0-0.2,0.1h-0.3c-0.2,0.2-0.4,0.3-0.6,0.3
		c0,0.1,0,0.1-0.1,0.1c-0.1,0-0.2,0-0.2,0.1c0,0-0.2,0.1-0.3,0.1l-0.1,0.1c-0.3,0-0.5,0-0.6,0.1h-0.1c-0.1,0.1-0.3,0.1-0.6,0.1h-0.1
		c-0.1,0.1-0.3,0.1-0.6,0.1h-0.1c-0.1,0-0.2,0-0.3,0.1c-0.1,0-0.2,0.1-0.3,0.1H186h-0.7h-0.7h-0.1c-0.2,0-0.3,0-0.3-0.1
		c0,0-0.2-0.1-0.3-0.1h-0.1c-0.2,0-0.4,0-0.6-0.1h-0.1c-0.2,0-0.4,0-0.6-0.1h-0.1c-0.1-0.1-0.3-0.1-0.6-0.1c0-0.1,0-0.1-0.1-0.1
		c-0.1,0-0.2,0-0.3-0.1c-0.1,0-0.2-0.1-0.3-0.1l-0.1-0.1c-0.2,0-0.4-0.1-0.6-0.3h-0.1c-0.1-0.1-0.2-0.1-0.2-0.1c0,0-0.1,0-0.2-0.1
		c-0.1,0-0.1,0-0.1-0.1c0,0,0-0.1-0.1-0.1c-0.2-0.2-0.3-0.3-0.3-0.3c-0.1,0-0.2,0-0.3-0.1c0,0-0.2-0.1-0.6-0.3v-0.1l-0.4-0.4
		c-0.1,0-0.1,0-0.1-0.1l-0.4-0.4h-0.1c-0.1-0.1-0.2-0.2-0.2-0.3c0-0.1-0.1-0.2-0.2-0.3c0,0,0,0-0.1-0.1c-0.2-0.2-0.3-0.3-0.3-0.4
		c-0.1,0-0.1,0-0.1-0.1c-0.1-0.1-0.2-0.2-0.2-0.3c0-0.1-0.1-0.2-0.2-0.3v-0.1c-0.2-0.2-0.3-0.4-0.3-0.6h-0.1v-0.1l-14.5-28.7
		l-20.9-41c-0.7-1.7-1.1-3.3-1.1-4.7v-0.3v-0.4v-0.1v-0.4V56c0.1-0.1,0.1-0.2,0.1-0.3v-0.3v-0.3c0-0.1,0-0.1,0.1-0.1
		c0,0,0.1,0,0.1-0.1v-0.1c0-0.2,0-0.3,0.1-0.4c0.1-0.7,0.3-1.3,0.7-2v-0.1c0.1-0.1,0.1-0.2,0.1-0.2c0,0,0-0.1,0.1-0.2v-0.1
		c0,0,0.1-0.1,0.3-0.3c0,0,0-0.1,0.1-0.3l0.1-0.1c0-0.1,0-0.1,0.1-0.1c0,0,0.1,0,0.1-0.1l0.1-0.1c0.3-0.4,0.7-0.9,1.4-1.5l0.3-0.3
		h0.1c0.2-0.2,0.3-0.3,0.3-0.3l0.1-0.1c0.1,0,0.1,0,0.1-0.1c0,0,0-0.1,0.1-0.1c0-0.1,0-0.1,0.1-0.1c0.1-0.1,0.2-0.1,0.3-0.1l0.3-0.3
		h0.1c0.1-0.1,0.2-0.1,0.2-0.1s0.1,0,0.2-0.1c0.1,0,0.2,0,0.2-0.1c0,0,0.2-0.1,0.3-0.1v-0.1c0.2,0,0.3,0,0.4-0.1h0.1
		c0.1,0,0.2,0,0.2-0.1c0,0,0.1-0.1,0.2-0.1h0.1c0-0.1,0.1-0.1,0.3-0.1c0,0,0,0,0.1-0.1h0.3c0.2,0,0.3,0,0.3-0.1h0.3h0.4
		c0.1-0.1,0.3-0.1,0.6-0.1h0.6h0.6h0.4h0.1h0.4h0.1c0.2,0,0.3,0,0.4,0.1h0.3h0.1c0.2,0,0.3,0,0.4,0.1c0.3,0,0.5,0,0.6,0.1
		c0.2,0.1,0.4,0.2,0.7,0.2c0.3,0,0.5,0.1,0.7,0.2c0.1,0.1,0.2,0.1,0.3,0.1c0.1,0,0.2,0,0.3,0.1c0.1,0.1,0.2,0.1,0.2,0.1
		c0,0,0.1,0,0.2,0.1h0.1c0.1,0.1,0.2,0.1,0.3,0.1l0.3,0.3h0.1c0.2,0.2,0.3,0.3,0.4,0.3l0.4,0.4c0.2,0.2,0.4,0.3,0.6,0.5
		c0.2,0.1,0.4,0.3,0.6,0.5v0.1c0.2,0,0.3,0.1,0.3,0.3c0,0,0,0,0.1,0.1c0,0,0,0.1,0.1,0.3c0.1,0,0.1,0,0.1,0.1c0.1,0,0.1,0.1,0.1,0.3
		c0.1,0,0.1,0,0.1,0.1c0,0,0,0.1,0.1,0.1v0.3c0,0,0.1,0.1,0.3,0.3v0.1c0.1,0.1,0.1,0.2,0.1,0.2c0,0,0,0.1,0.1,0.2l25.6,50.4l1.7-3.5
		l23.8-46.9c0.2-0.2,0.3-0.3,0.3-0.4c0-0.1,0-0.1,0.1-0.1c0-0.2,0-0.3,0.1-0.3c0-0.1,0-0.1,0.1-0.1s0.1,0,0.1-0.1l0.1-0.1
		c0-0.1,0-0.2,0.1-0.3c0-0.1,0-0.1,0.1-0.1c0.2-0.2,0.3-0.3,0.3-0.3v-0.1l0.3-0.3c0.3-0.3,0.5-0.6,0.8-0.8c0.2-0.3,0.5-0.5,0.8-0.7
		h0.1c0,0,0.1-0.1,0.3-0.3h0.1c0.2-0.2,0.3-0.3,0.3-0.3c0.2,0,0.3,0,0.3-0.1h0.3c0,0,0.1-0.1,0.3-0.3h0.1c0.1-0.1,0.2-0.1,0.2-0.1
		c0,0,0.1,0,0.2-0.1c0.3-0.1,0.8-0.2,1.5-0.4c0.1-0.1,0.2-0.1,0.4-0.1h0.1c0.1-0.1,0.2-0.1,0.3-0.1h0.3h0.3c0-0.1,0.1-0.1,0.3-0.1
		h0.1h0.4h0.1h0.4h0.1h0.6h0.4h0.1c0.2,0,0.3,0,0.4,0.1h0.1h0.4h0.1c0.1,0.1,0.2,0.1,0.3,0.1h0.3c0,0.1,0,0.1,0.1,0.1
		c0.2,0,0.3,0,0.4,0.1h0.1c0.1,0,0.2,0,0.2,0.1c0,0,0.1,0.1,0.2,0.1c0.1,0.1,0.2,0.1,0.4,0.1l0.1,0.1c0.1,0,0.2,0,0.2,0.1
		c0,0,0.1,0.1,0.2,0.1h0.1c0.2,0.2,0.3,0.3,0.3,0.3h0.1c0.1,0.1,0.2,0.1,0.2,0.1c0,0,0.1,0,0.2,0.1l0.1,0.1c0,0,0.1,0,0.3,0.1
		l0.1,0.1c0.1,0,0.1,0,0.1,0.1c0.1,0,0.2,0.1,0.4,0.3c0.1,0.1,0.2,0.1,0.2,0.1c0,0,0.1,0,0.2,0.1c0.2,0.3,0.4,0.5,0.7,0.8
		c0.3,0.2,0.5,0.5,0.7,0.8v0.1l0.3,0.3c0,0.1,0,0.1,0.1,0.1c0,0.2,0,0.3,0.1,0.3c0,0.1,0,0.2,0.1,0.3c0,0.1,0,0.1,0.1,0.1
		c0,0.1,0,0.2,0.1,0.2c0,0,0.1,0.1,0.1,0.2v0.1c0.2,0.4,0.5,1,0.8,2v0.4c0,0,0,0,0.1,0.1v0.3v0.3c0,0,0,0.1,0.1,0.3V56v0.1v0.4v0.1
		v0.4V57.2L231.6,57.2z"/>
	<path class="st1" d="M104.2,191c0.7,0.7,1.2,1.6,1.5,2.4c0.3,0.9,0.5,1.8,0.5,2.7c0,0.9-0.2,1.8-0.6,2.7c-0.4,0.9-0.9,1.7-1.7,2.4
		c-2.8,2.8-6.1,4.9-9.7,6.3c-3.6,1.4-7.4,2.1-11.3,2.1c-3.6,0-7.1-0.6-10.3-1.8c-3.2-1.2-6.2-2.9-8.8-5c-2.6-2.1-4.8-4.6-6.7-7.5
		c-1.8-2.9-3.1-6-3.8-9.4c0.9,0.9,1.8,1.5,3,2c1.1,0.5,2.3,0.7,3.6,0.7c1.7,0,3.3-0.4,4.7-1.2c1.4-0.8,2.5-1.9,3.3-3.3
		c0.5,1.6,1.2,3.1,2.2,4.4c1,1.4,2.1,2.5,3.5,3.5c1.3,1,2.8,1.7,4.3,2.3c1.6,0.6,3.2,0.8,5,0.8c2,0,4-0.4,5.9-1.1
		c1.9-0.7,3.6-1.8,5-3.2c1.5-1.4,3.2-2.1,5.2-2C101.1,188.7,102.8,189.5,104.2,191L104.2,191z M59.9,186.5c-2,0-3.8-0.7-5.2-2.1
		c-1.4-1.4-2.1-3.1-2.1-5.2c0-4.2,0.8-8.1,2.4-11.8c1.6-3.7,3.8-6.9,6.5-9.6c2.7-2.7,5.9-4.9,9.6-6.5c3.7-1.6,7.6-2.4,11.8-2.4
		c3.9,0,7.7,0.7,11.3,2.1c3.6,1.4,6.8,3.5,9.7,6.3c0.7,0.7,1.3,1.5,1.7,2.4c0.4,0.9,0.6,1.8,0.6,2.7c0,0.9-0.1,1.8-0.5,2.7
		c-0.3,0.9-0.8,1.7-1.5,2.4c-1.4,1.5-3.1,2.2-5.1,2.3c-2,0.1-3.7-0.6-5.2-2c-3.1-3-6.7-4.4-10.9-4.4c-2.2,0-4.2,0.4-6.1,1.2
		c-1.9,0.8-3.6,2-5,3.4c-1.4,1.4-2.5,3.1-3.4,5c-0.8,1.9-1.2,3.9-1.2,6.1c-0.1,2-0.8,3.8-2.2,5.2C63.6,185.8,61.9,186.5,59.9,186.5
		L59.9,186.5z"/>
	<path class="st1" d="M163.1,199.9c0.7,1.8,0.7,3.7-0.1,5.5c-0.8,1.8-2.2,3.1-4.1,3.9c-0.9,0.3-1.8,0.5-2.6,0.5
		c-1.5,0-2.8-0.4-4.1-1.2c-1.2-0.8-2.2-2-2.8-3.4l-2.9-7.6h-2.2h-14.3l-3,7.6c-0.6,1.4-1.5,2.5-2.7,3.4c-1.3,0.8-2.6,1.2-4,1.2
		c-0.5,0-0.9,0-1.3-0.1c-0.4-0.1-0.8-0.2-1.3-0.3c-1.8-0.7-3.2-2-4-3.9c-0.8-1.8-0.9-3.7-0.2-5.5l15.9-40.8c0,0.1,0.1,0.3,0.2,0.6
		l7.6,19.6l-1.5,3.9h3h2.2l-2.7-6.7l-6.7-17.5c-0.7-1.8-0.7-3.5,0-5.3v-0.1c0.1-0.1,0.1-0.2,0.1-0.3c0.1,0,0.1,0,0.1-0.1
		c0-0.1,0-0.1,0-0.1c0,0,0,0,0-0.1c0-0.1,0-0.1,0-0.1c0,0,0,0,0-0.1c0-0.1,0-0.1,0.1-0.1c0-0.1,0-0.1,0-0.1c0,0,0-0.1,0-0.1
		c0,0,0,0,0.1-0.1c0,0,0-0.1,0.1-0.2c0,0,0,0,0.1-0.1c0-0.1,0-0.1,0-0.1c0,0,0,0,0-0.1c0.1,0,0.1,0,0.1-0.1l0.2-0.2c0,0,0,0,0.1-0.1
		c0-0.1,0-0.1,0-0.1s0,0,0-0.1c0,0,0,0,0.1-0.1c0.1,0,0.1,0,0.1,0c0,0,0,0,0.1,0c0-0.1,0-0.1,0-0.1s0,0,0-0.1c0,0,0,0,0.1-0.1
		c0.1,0,0.1,0,0.1,0c0,0,0,0,0.1,0c0-0.1,0-0.1,0.1-0.1l0.2-0.2h0.1c0.1-0.1,0.2-0.2,0.2-0.2s0,0,0.1-0.1c0.1,0,0.1,0,0.2-0.1
		c0.1,0,0.1,0,0.1-0.1c0.1,0,0.1,0,0.1,0c0,0,0.1,0,0.1,0c0,0,0,0,0.1-0.1c0,0,0.1,0,0.2-0.1c0,0,0,0,0.1-0.1c0.1,0,0.2,0,0.2-0.1
		h0.3c0-0.1,0-0.1,0.1-0.1c0.1,0,0.1,0,0.1,0c0,0,0.1,0,0.1,0h0.1c0.1-0.1,0.1-0.1,0.1-0.1c0,0,0.1,0,0.1-0.1h0.3h0.1
		c0.1-0.1,0.2-0.1,0.3-0.1h0.1c0.1,0,0.1,0,0.2-0.1h0.2h0.2h0.1h0.3h0.1h0.3h0.1h0.2h0.2h0.2h0.2h0.2c0,0.1,0.1,0.1,0.2,0.1h0.2
		c0,0,0.1,0,0.2,0.1h0.2h0.1c0.1,0.1,0.2,0.1,0.4,0.1c0.1,0,0.2,0.1,0.4,0.1h0.1c0.1,0.1,0.1,0.1,0.2,0.1c0.1,0.1,0.1,0.1,0.2,0.1
		c0.1,0,0.1,0,0.1,0c0,0,0,0,0.1,0c0.1,0,0.1,0,0.1,0c0,0,0,0,0.1,0l0.1,0.1c0.1,0,0.1,0,0.2,0.1c0.1,0,0.1,0,0.1,0.1
		c0.1,0,0.1,0,0.1,0c0,0,0.1,0,0.1,0c0,0,0,0,0.1,0.1c0,0,0.1,0,0.2,0.1c0,0.1,0,0.1,0.1,0.1c0,0,0.1,0.1,0.2,0.2l0.1,0.1l0.1,0.1
		c0.1,0.1,0.1,0.1,0.2,0.1c0,0.1,0,0.1,0,0.1c0,0,0,0,0,0.1c0.1,0,0.1,0,0.1,0.1c0.1,0.1,0.1,0.1,0.2,0.1c0,0.1,0,0.1,0,0.1
		c0,0,0,0,0,0.1l0.1,0.1l0.2,0.2v0.1l0.2,0.2v0.1l0.2,0.2c0,0.1,0,0.1,0.1,0.1c0,0.1,0,0.1,0,0.1c0,0,0,0.1,0,0.1l0.1,0.1
		c0,0.1,0,0.1,0.1,0.2v0.2c0.1,0,0.1,0,0.1,0.1c0.1,0.1,0.1,0.2,0.1,0.3c0,0,0,0,0.1,0.1l13.2,34.1l0.1,0.2L163.1,199.9L163.1,199.9
		z"/>
	<path class="st1" d="M171.7,162.5l14.6,28.7v11.2c0,2-0.7,3.8-2.2,5.2c-1.4,1.4-3.2,2.1-5.1,2.1c-2,0-3.8-0.7-5.2-2.1
		c-1.4-1.4-2.1-3.1-2.1-5.2V162.5L171.7,162.5z M233.1,156.2L233.1,156.2v46.2c0,2-0.7,3.8-2.1,5.2c-1.4,1.4-3.1,2.1-5.1,2.1
		c-2,0-3.8-0.7-5.2-2.1c-1.4-1.4-2.1-3.1-2.1-5.2v-15.8l-7,13.9l-2.7,5.2v0.1c-0.1,0.1-0.2,0.2-0.3,0.4v0.1
		c-0.1,0.1-0.1,0.1-0.1,0.2c0,0.1-0.1,0.1-0.1,0.2v0.1l-0.3,0.3c0,0.1,0,0.1-0.1,0.1c-0.1,0.1-0.1,0.1-0.1,0.2
		c0,0.1-0.1,0.1-0.1,0.2l-0.3,0.3l-0.1,0.1l-0.3,0.3c0,0,0,0-0.1,0.1c0,0-0.1,0.1-0.4,0.2c0,0.1,0,0.1-0.1,0.1
		c-0.1,0.1-0.1,0.1-0.1,0.1c0,0-0.1,0-0.1,0.1l-0.1,0.1c-0.1,0.1-0.1,0.1-0.1,0.1c0,0-0.1,0-0.1,0.1h-0.2c-0.1,0.1-0.2,0.2-0.4,0.2
		c0,0.1,0,0.1-0.1,0.1c-0.1,0-0.1,0-0.1,0c0,0-0.1,0-0.2,0l-0.1,0.1c-0.2,0-0.3,0-0.4,0.1h-0.1c-0.1,0.1-0.2,0.1-0.4,0.1h-0.1
		c-0.1,0.1-0.2,0.1-0.4,0.1h-0.1c-0.1,0-0.1,0-0.2,0c-0.1,0-0.1,0-0.2,0h-0.1h-0.5H202h-0.1c-0.1,0-0.2,0-0.2,0c0,0-0.1,0-0.2,0
		h-0.1c-0.1,0-0.2,0-0.4-0.1h-0.1c-0.1,0-0.2,0-0.4-0.1h-0.1c-0.1-0.1-0.2-0.1-0.4-0.1c0-0.1,0-0.1-0.1-0.1c-0.1,0-0.1,0-0.2,0
		c-0.1,0-0.1,0-0.2,0l-0.1-0.1c-0.1,0-0.2-0.1-0.4-0.2H199c-0.1-0.1-0.1-0.1-0.1-0.1c0,0-0.1,0-0.1-0.1c-0.1,0-0.1,0-0.1,0
		c0,0,0,0-0.1,0c-0.1-0.1-0.2-0.2-0.2-0.2c-0.1,0-0.1,0-0.2-0.1c0,0-0.1-0.1-0.4-0.2v-0.1l-0.3-0.3c-0.1,0-0.1,0-0.1-0.1l-0.3-0.3
		h-0.1c-0.1-0.1-0.1-0.1-0.1-0.2c0-0.1-0.1-0.1-0.1-0.2c0,0,0,0-0.1-0.1c-0.1-0.1-0.2-0.2-0.2-0.3c-0.1,0-0.1,0-0.1-0.1
		c-0.1-0.1-0.1-0.1-0.1-0.2c0-0.1-0.1-0.1-0.1-0.2v-0.1c-0.1-0.1-0.2-0.2-0.2-0.4h-0.1v-0.1l-9.6-19l-13.9-27.2
		c-0.5-1.1-0.7-2.2-0.7-3.1v-0.2v-0.3v-0.1v-0.3v-0.1c0.1-0.1,0.1-0.1,0.1-0.2V155v-0.2c0-0.1,0-0.1,0-0.1c0,0,0,0,0-0.1v-0.1
		c0-0.1,0-0.2,0.1-0.3c0.1-0.4,0.2-0.9,0.5-1.3v-0.1c0.1-0.1,0.1-0.1,0.1-0.1c0,0,0-0.1,0.1-0.1v-0.1c0,0,0.1-0.1,0.2-0.2
		c0,0,0-0.1,0.1-0.2l0.1-0.1c0-0.1,0-0.1,0-0.1c0,0,0,0,0-0.1l0.1-0.1c0.2-0.2,0.5-0.6,0.9-1l0.2-0.2h0.1c0.1-0.1,0.2-0.2,0.2-0.2
		l0.1-0.1c0.1,0,0.1,0,0.1,0c0,0,0,0,0.1,0c0-0.1,0-0.1,0.1-0.1c0.1-0.1,0.1-0.1,0.2-0.1l0.2-0.2h0.1c0.1-0.1,0.1-0.1,0.1-0.1
		c0,0,0.1,0,0.1-0.1c0.1,0,0.1,0,0.1,0c0,0,0.1,0,0.2,0v-0.1c0.1,0,0.2,0,0.3-0.1h0.1c0.1,0,0.1,0,0.1,0c0,0,0.1,0,0.1,0h0.1
		c0-0.1,0.1-0.1,0.2-0.1c0,0,0,0,0.1-0.1h0.2c0.1,0,0.2,0,0.2-0.1h0.2h0.3c0.1-0.1,0.2-0.1,0.4-0.1h0.4h0.4h0.3h0.1h0.3h0.1
		c0.1,0,0.2,0,0.3,0.1h0.2h0.1c0.1,0,0.2,0,0.3,0.1c0.2,0,0.3,0,0.4,0.1c0.1,0.1,0.3,0.1,0.5,0.1c0.2,0,0.3,0.1,0.5,0.1
		c0.1,0.1,0.1,0.1,0.2,0.1c0.1,0,0.1,0,0.2,0.1c0.1,0.1,0.1,0.1,0.1,0.1s0.1,0,0.1,0.1h0.1c0.1,0.1,0.1,0.1,0.2,0.1l0.2,0.2h0.1
		c0.1,0.1,0.2,0.2,0.3,0.2l0.3,0.3c0.1,0.1,0.2,0.2,0.4,0.3c0.1,0.1,0.2,0.2,0.4,0.3v0.1c0.1,0,0.2,0.1,0.2,0.2c0,0,0,0,0.1,0.1
		c0,0,0,0.1,0.1,0.2c0.1,0,0.1,0,0.1,0.1c0.1,0,0.1,0.1,0.1,0.2c0.1,0,0.1,0,0.1,0c0,0,0,0,0.1,0v0.2c0,0,0.1,0.1,0.2,0.2v0.1
		c0.1,0.1,0.1,0.1,0.1,0.1c0,0,0,0.1,0.1,0.1l17,33.5l1.1-2.3l15.8-31.1c0.1-0.1,0.2-0.2,0.2-0.3c0-0.1,0-0.1,0.1-0.1
		c0-0.1,0-0.2,0.1-0.2c0-0.1,0-0.1,0-0.1c0,0,0,0,0-0.1l0.1-0.1c0-0.1,0-0.1,0.1-0.2c0-0.1,0-0.1,0.1-0.1c0.1-0.1,0.2-0.2,0.2-0.2
		v-0.1l0.2-0.2c0.2-0.2,0.4-0.4,0.5-0.6c0.2-0.2,0.3-0.3,0.5-0.5h0.1c0,0,0.1-0.1,0.2-0.2h0.1c0.1-0.1,0.2-0.2,0.2-0.2
		c0.1,0,0.2,0,0.2-0.1h0.2c0,0,0.1-0.1,0.2-0.2h0.1c0.1-0.1,0.1-0.1,0.1-0.1c0,0,0.1,0,0.1-0.1c0.2-0.1,0.5-0.2,1-0.3
		c0.1-0.1,0.2-0.1,0.3-0.1h0.1c0.1-0.1,0.1-0.1,0.2-0.1h0.2h0.2c0-0.1,0.1-0.1,0.2-0.1h0.1h0.3h0.1h0.3h0.1h0.4h0.3h0.1
		c0.1,0,0.2,0,0.3,0.1h0.1h0.3h0.1c0.1,0.1,0.1,0.1,0.2,0.1h0.2c0,0.1,0,0.1,0.1,0.1c0.1,0,0.2,0,0.3,0.1h0.1c0.1,0,0.1,0,0.1,0
		c0,0,0.1,0,0.1,0c0.1,0.1,0.2,0.1,0.3,0.1l0.1,0.1c0.1,0,0.1,0,0.1,0c0,0,0.1,0,0.1,0h0.1c0.1,0.1,0.2,0.2,0.2,0.2h0.1
		c0.1,0.1,0.1,0.1,0.1,0.1c0,0,0.1,0,0.1,0.1l0.1,0.1c0,0,0.1,0,0.2,0.1l0.1,0.1c0.1,0,0.1,0,0.1,0.1c0.1,0,0.2,0.1,0.3,0.2
		c0.1,0.1,0.1,0.1,0.1,0.1c0,0,0.1,0,0.1,0.1c0.1,0.2,0.3,0.4,0.5,0.5c0.2,0.2,0.3,0.3,0.5,0.5v0.1l0.2,0.2c0,0.1,0,0.1,0.1,0.1
		c0,0.1,0,0.2,0.1,0.2c0,0.1,0,0.1,0.1,0.2c0,0.1,0,0.1,0.1,0.1c0,0.1,0,0.1,0,0.1c0,0,0,0.1,0,0.1v0.1c0.1,0.2,0.3,0.7,0.6,1.3v0.3
		c0,0,0,0,0.1,0.1v0.2v0.2c0,0,0,0.1,0.1,0.2v0.2v0.1v0.3v0.1V156.2L233.1,156.2L233.1,156.2z"/>
	<path class="st1" d="M60.6,235.9c0-0.8,0.4-1.2,1.2-1.2h3.6c1.3,0,2.5-0.5,3.4-1.4c1-0.9,1.4-2.1,1.4-3.4c0-1.3-0.5-2.5-1.4-3.4
		c-0.9-1-2.1-1.4-3.4-1.4h-4.8V235.9L60.6,235.9z M58.2,245.6v-21.7c0-0.3,0.1-0.6,0.4-0.8c0.2-0.2,0.5-0.4,0.8-0.4h6
		c2,0,3.7,0.7,5.1,2.1c1.4,1.4,2.1,3.1,2.1,5.1c0,2-0.7,3.7-2.1,5.1c-1.4,1.4-3.1,2.1-5.1,2.1h-3.6c-0.8,0-1.2-0.4-1.2-1.2v9.6
		c0,0.8-0.4,1.2-1.2,1.2C58.6,246.8,58.2,246.4,58.2,245.6L58.2,245.6z M92.5,245.6c0,0.8-0.4,1.2-1.2,1.2H79.2
		c-0.3,0-0.6-0.1-0.8-0.4c-0.2-0.2-0.4-0.5-0.4-0.8v-21.7c0-0.3,0.1-0.6,0.4-0.8c0.2-0.2,0.5-0.4,0.8-0.4h12.1
		c0.8,0,1.2,0.4,1.2,1.2c0,0.8-0.4,1.2-1.2,1.2H80.4v8.5h8.5c0.8,0,1.2,0.4,1.2,1.2c0,0.8-0.4,1.2-1.2,1.2h-8.5v8.5h10.9
		C92.1,244.4,92.5,244.8,92.5,245.6L92.5,245.6z M117.6,242.4c0,0.3-0.1,0.5-0.4,0.8c-0.9,1.1-2.2,2-3.9,2.6
		c-1.6,0.6-3.1,0.9-4.6,0.9c-3.3,0-6.2-1.2-8.5-3.5c-2.4-2.4-3.5-5.2-3.5-8.5c0-3.3,1.2-6.2,3.5-8.5c2.4-2.4,5.2-3.5,8.5-3.5
		c1.5,0,3.1,0.3,4.6,0.9c1.7,0.7,3,1.5,3.9,2.6c0.3,0.3,0.4,0.6,0.4,0.8c0,0.3-0.1,0.6-0.4,0.9c-0.3,0.2-0.5,0.4-0.9,0.4
		c-0.3,0-0.5-0.1-0.8-0.4c-0.2-0.2-0.6-0.5-1.1-1c-1.6-1.2-3.5-1.9-5.7-1.9c-2.7,0-4.9,0.9-6.8,2.8c-1.9,1.9-2.8,4.2-2.8,6.8
		c0,2.7,0.9,5,2.8,6.8c1.9,1.9,4.2,2.8,6.8,2.8c2.2,0,4.1-0.6,5.7-1.9c0.2-0.2,0.6-0.5,1.1-1c0.3-0.3,0.6-0.4,0.8-0.4
		c0.3,0,0.6,0.1,0.9,0.4C117.5,241.8,117.6,242.1,117.6,242.4L117.6,242.4z M137.5,223.9c0,0.8-0.4,1.2-1.2,1.2h-6v20.5
		c0,0.8-0.4,1.2-1.2,1.2c-0.8,0-1.2-0.4-1.2-1.2v-20.5h-6c-0.8,0-1.2-0.4-1.2-1.2c0-0.8,0.4-1.2,1.2-1.2h14.5
		C137.1,222.7,137.5,223.1,137.5,223.9L137.5,223.9z M163.9,234.7c0,3.3-1.2,6.2-3.5,8.5c-2.4,2.4-5.2,3.5-8.5,3.5
		c-3.3,0-6.2-1.2-8.5-3.5c-2.4-2.4-3.5-5.2-3.5-8.5c0-3.3,1.2-6.2,3.5-8.5c2.4-2.4,5.2-3.5,8.5-3.5c3.3,0,6.2,1.2,8.5,3.5
		C162.7,228.6,163.9,231.4,163.9,234.7L163.9,234.7z M161.5,234.7c0-2.7-0.9-4.9-2.8-6.8c-1.9-1.9-4.2-2.8-6.8-2.8
		c-2.7,0-4.9,0.9-6.8,2.8c-1.9,1.9-2.8,4.2-2.8,6.8c0,2.7,0.9,5,2.8,6.8c1.9,1.9,4.2,2.8,6.8,2.8c2.7,0,4.9-0.9,6.8-2.8
		C160.5,239.7,161.5,237.4,161.5,234.7L161.5,234.7z M172.4,235.9c0-0.8,0.4-1.2,1.2-1.2h3.6c1.3,0,2.5-0.5,3.4-1.4
		c1-0.9,1.4-2.1,1.4-3.4c0-1.3-0.5-2.5-1.4-3.4c-0.9-1-2.1-1.4-3.4-1.4h-4.8V235.9L172.4,235.9z M170,245.6v-21.7
		c0-0.3,0.1-0.6,0.4-0.8c0.2-0.2,0.5-0.4,0.8-0.4h6c2,0,3.7,0.7,5.1,2.1c1.4,1.4,2.1,3.1,2.1,5.1c0,2-0.7,3.7-2.1,5.1
		c-1.4,1.4-3.1,2.1-5.1,2.1h-3.6c-0.8,0-1.2-0.4-1.2-1.2v9.6c0,0.8-0.4,1.2-1.2,1.2C170.4,246.8,170,246.4,170,245.6L170,245.6z
		 M210.5,245.6c0,0.3-0.1,0.6-0.4,0.8c-0.3,0.2-0.6,0.3-0.9,0.3c-0.5,0-0.8-0.2-1.1-0.7l-3.3-6.6c-0.1,0-0.3,0-0.4,0h-12
		c-0.2,0-0.3,0-0.4,0l-3.3,6.6c-0.2,0.4-0.6,0.7-1,0.7c-0.3,0-0.6-0.1-0.9-0.3c-0.3-0.2-0.4-0.5-0.4-0.8c0-0.2,0.1-0.4,0.1-0.6
		l10.8-21.5c0.3-0.6,0.7-0.9,1.2-0.9c0.5,0,0.9,0.3,1.2,0.9l10.8,21.5C210.4,245.2,210.5,245.4,210.5,245.6L210.5,245.6z
		 M203.7,237.2l-5.3-10.5l-5.3,10.5H203.7L203.7,237.2z M232.3,245.6c0,0.8-0.4,1.2-1.2,1.2c-0.8,0-1.2-0.4-1.2-1.2V236h-12.1v9.6
		c0,0.8-0.4,1.2-1.2,1.2c-0.8,0-1.2-0.4-1.2-1.2v-21.7c0-0.8,0.4-1.2,1.2-1.2c0.8,0,1.2,0.4,1.2,1.2v9.7h12.1v-9.7
		c0-0.8,0.4-1.2,1.2-1.2c0.8,0,1.2,0.4,1.2,1.2V245.6L232.3,245.6z"/>
	<path class="st2" d="M249.5,153L249.5,153L249.5,153L249.5,153L249.5,153c-1.7,0-3.3,0.7-4.4,1.8c-1.1,1.1-1.8,2.7-1.8,4.4h0v0v0h0
		c0,1.7,0.7,3.3,1.8,4.4c1.1,1.1,2.7,1.8,4.4,1.8v0h0h0v0c1.7,0,3.3-0.7,4.4-1.8c1.1-1.1,1.8-2.7,1.8-4.4h0l0,0v0h0
		c0-1.7-0.7-3.3-1.8-4.4C252.7,153.6,251.2,153,249.5,153L249.5,153z M249.5,151.7L249.5,151.7L249.5,151.7c2.1,0,4,0.8,5.3,2.2
		c1.4,1.4,2.2,3.2,2.2,5.3h0v0l0,0h0c0,2.1-0.8,4-2.2,5.3c-1.4,1.4-3.2,2.2-5.3,2.2v0h0h0v0c-2.1,0-4-0.8-5.3-2.2
		c-1.4-1.4-2.2-3.2-2.2-5.3h0v0v0h0c0-2.1,0.8-4,2.2-5.3C245.5,152.5,247.4,151.7,249.5,151.7L249.5,151.7L249.5,151.7L249.5,151.7z
		 M247.9,158.6h1.2c0.8,0,1.3,0,1.5-0.1c0.2-0.1,0.3-0.2,0.5-0.3c0.1-0.2,0.2-0.4,0.2-0.6c0-0.3-0.1-0.5-0.2-0.7
		c-0.1-0.2-0.4-0.3-0.6-0.3c-0.1,0-0.5,0-1.2,0h-1.3V158.6L247.9,158.6z M246.2,163.3v-8.2h3.5c0.9,0,1.5,0.1,1.9,0.2
		c0.4,0.1,0.7,0.4,0.9,0.8c0.2,0.4,0.4,0.8,0.4,1.3c0,0.6-0.2,1.1-0.5,1.5c-0.4,0.4-0.9,0.7-1.6,0.8c0.4,0.2,0.7,0.4,0.9,0.7
		c0.2,0.2,0.5,0.7,0.9,1.3l1,1.6h-2l-1.2-1.8c-0.4-0.6-0.7-1-0.9-1.2c-0.2-0.2-0.3-0.3-0.5-0.3c-0.2-0.1-0.5-0.1-0.8-0.1h-0.3v3.4
		H246.2L246.2,163.3z"/>
</g>
</svg>
