<?xml version="1.0" encoding="UTF-8"?>
<!DOCTYPE svg PUBLIC "-//W3C//DTD SVG 1.1//EN" "http://www.w3.org/Graphics/SVG/1.1/DTD/svg11.dtd">
<!-- Creator: CorelDRAW X7 -->
<svg xmlns="http://www.w3.org/2000/svg" xml:space="preserve" width="51.1219mm" height="56.0509mm" version="1.1" style="shape-rendering:geometricPrecision; text-rendering:geometricPrecision; image-rendering:optimizeQuality; fill-rule:evenodd; clip-rule:evenodd"
viewBox="0 0 1728 1895"
 xmlns:xlink="http://www.w3.org/1999/xlink">
 <defs>
  <style type="text/css">
   <![CDATA[
    .fil5 {fill:#38947D}
    .fil4 {fill:#68BAA5}
    .fil0 {fill:#95DBC9}
    .fil6 {fill:#C22727}
    .fil2 {fill:#E6E6E6}
    .fil3 {fill:#F4F4F4}
    .fil1 {fill:#F94848}
    .fil7 {fill:#FF7575}
   ]]>
  </style>
 </defs>
 <g id="Слой_x0020_1">
  <metadata id="CorelCorpID_0Corel-Layer"/>
  <g id="_736941184">
   <path class="fil0" d="M314 480c-174,0 -314,140 -314,313l0 762 1139 0 0 -1075 -825 0z"/>
   <rect class="fil1" x="95" width="460" height="242"/>
   <rect class="fil2" x="499" width="111" height="914"/>
   <rect class="fil2" x="530" y="1433" width="239" height="461"/>
   <circle class="fil3" cx="554" cy="914" r="96"/>
   <rect class="fil4" y="1311" width="1139" height="244"/>
   <path class="fil5" d="M1453 1555l-627 0 0 -762c0,-173 140,-313 313,-313l0 0c173,0 314,140 314,313l0 762 0 0z"/>
   <rect class="fil6" x="826" y="818" width="902" height="576"/>
   <rect class="fil6" x="1277" y="818" width="451" height="576"/>
   <polygon class="fil1" points="1277,927 826,1394 1728,1394 "/>
   <polygon class="fil7" points="1277,927 1277,1394 1728,1394 "/>
   <polygon class="fil7" points="826,818 1277,1199 1728,818 "/>
   <polygon class="fil1" points="1277,818 1277,1199 1728,818 "/>
  </g>
 </g>
</svg>
