<?xml version="1.0" encoding="UTF-8"?>
<!DOCTYPE svg PUBLIC "-//W3C//DTD SVG 1.1//EN" "http://www.w3.org/Graphics/SVG/1.1/DTD/svg11.dtd">
<!-- Creator: CorelDRAW X7 -->
<svg xmlns="http://www.w3.org/2000/svg" xml:space="preserve" width="25.0001mm" height="25.0987mm" version="1.1" style="shape-rendering:geometricPrecision; text-rendering:geometricPrecision; image-rendering:optimizeQuality; fill-rule:evenodd; clip-rule:evenodd"
viewBox="0 0 388 389"
 xmlns:xlink="http://www.w3.org/1999/xlink">

 <g id="Слой_x0020_1">
  <metadata id="CorelCorpID_0Corel-Layer"/>
  <path class="fil0" d="M343 42c37,38 50,91 37,139l-14 -3c12,-43 1,-92 -33,-126 -37,-36 -90,-47 -135,-30l-3 -14c50,-17 108,-6 148,34zm-207 53c-11,15 -32,31 -23,55 21,55 72,105 126,126 24,9 40,-12 55,-22 12,-8 72,-4 94,47 -3,32 -19,58 -52,83 -128,46 -377,-203 -330,-331 25,-33 51,-49 82,-51 51,21 56,81 48,93zm237 209c-8,-17 -21,-28 -39,-34 -7,-3 -14,-5 -22,-5 -2,0 -8,0 -11,1 -5,4 -10,9 -16,13 -15,12 -32,18 -51,10 -58,-22 -112,-75 -134,-134 -4,-10 -4,-20 -1,-31 5,-15 15,-24 24,-36 1,-3 1,-9 1,-11 0,-8 -2,-15 -4,-22 -6,-17 -18,-31 -34,-39 -29,4 -50,21 -68,44 -10,32 1,70 15,99 19,42 50,82 83,115 32,32 72,63 114,83 29,13 68,24 99,14 24,-18 40,-38 44,-67zm-77 -215c21,21 27,52 18,79l-14 -3c8,-22 4,-48 -14,-66 -21,-20 -51,-24 -75,-10l-3 -15c29,-14 64,-9 88,15z"/>
 </g>
</svg>
