<svg xmlns="http://www.w3.org/2000/svg" xmlns:xlink="http://www.w3.org/1999/xlink" width="83" height="83" viewBox="0 0 83 83"><defs><path id="oyjta" d="M992.03 135.4l-22.05 15.09c-.64.54-2.5.5-2.67-1.4V118.9c.15-1.9 1.98-1.9 2.67-1.4l22.05 15.09a1.7 1.7 0 0 1 0 2.8zm-3.98-1.4l-17.32-11.87v23.74zm27.95 0c0 22.06-17.94 40-40 40s-40-17.94-40-40 17.94-40 40-40 40 17.94 40 40zm-3.41 0A36.62 36.62 0 0 0 976 97.41 36.62 36.62 0 0 0 939.41 134 36.62 36.62 0 0 0 976 170.59a36.62 36.62 0 0 0 36.59-36.59z"/></defs><g><g transform="translate(-934 -92)"><use fill="#fff" xlink:href="#oyjta"/></g></g></svg>