<svg xmlns="http://www.w3.org/2000/svg" xmlns:xlink="http://www.w3.org/1999/xlink" width="23" height="29" viewBox="0 0 23 29"><defs><path id="gxpya" d="M853 683.61v10.16a3.23 3.23 0 0 1-3.23 3.23h-12.54a3.23 3.23 0 0 1-3.23-3.23V683.6a3.23 3.23 0 0 1 3.23-3.23h2.03c.4 0 .7.32.7.71 0 .4-.3.7-.7.7h-2.03c-1 0-1.82.82-1.82 1.82v10.16c0 1 .82 1.82 1.82 1.82h12.54c1 0 1.81-.82 1.81-1.82v-10.15c0-1-.81-1.82-1.81-1.82h-2.04a.7.7 0 0 1-.7-.7c0-.4.31-.71.7-.71h2.04a3.24 3.24 0 0 1 3.23 3.22zm-14.25-6.15a.7.7 0 0 1 0-1l4.24-4.24a.7.7 0 0 1 1 0l4.24 4.24a.7.7 0 0 1 0 1 .69.69 0 0 1-1 0l-3.03-3.03v11.42a.7.7 0 0 1-1.41 0v-11.42l-3.03 3.03a.72.72 0 0 1-1.01 0z"/></defs><g><g transform="translate(-832 -670)"><use xlink:href="#gxpya"/></g></g></svg>