<?xml version="1.0" encoding="UTF-8"?>
<!DOCTYPE svg PUBLIC "-//W3C//DTD SVG 1.1//EN" "http://www.w3.org/Graphics/SVG/1.1/DTD/svg11.dtd">
<!-- Creator: CorelDRAW X7 -->
<svg xmlns="http://www.w3.org/2000/svg" xml:space="preserve" width="23.0541mm" height="7.8823mm" version="1.1" style="shape-rendering:geometricPrecision; text-rendering:geometricPrecision; image-rendering:optimizeQuality; fill-rule:evenodd; clip-rule:evenodd"
viewBox="0 0 327 112"
 xmlns:xlink="http://www.w3.org/1999/xlink">

 <g id="Слой_x0020_1">
  <metadata id="CorelCorpID_0Corel-Layer"/>
  <path class="fil0" d="M326 22c-5,34 -25,44 -51,43 -16,122 -192,-37 -260,1 1,0 1,0 2,0 10,0 17,8 17,17 0,10 -7,17 -17,17 -9,0 -17,-7 -17,-17 0,-3 1,-6 3,-9 12,-21 30,-28 52,-27 -2,-3 -4,-6 -4,-10 0,-3 1,-6 2,-8l0 0 0 0c1,-1 1,-1 2,-2 52,-87 211,69 261,9 -2,0 -4,1 -6,1 -10,0 -18,-8 -18,-17 0,-10 8,-17 18,-17 9,0 17,7 17,17 0,1 0,1 -1,2l0 0zm-247 28c75,17 171,87 194,15 -62,-5 -160,-73 -207,-45 1,0 2,0 3,0 9,0 17,7 17,17 0,5 -3,10 -7,13z"/>
 </g>
</svg>
